<svg id="Icons" xmlns="http://www.w3.org/2000/svg" viewBox="0 0 48 48"><defs><style>.cls-1{fill:#45413c;opacity:0.15;}.cls-2{fill:#656769;}.cls-12,.cls-13,.cls-2,.cls-5,.cls-6{stroke:#45413c;stroke-linecap:round;stroke-linejoin:round;}.cls-3{fill:#adc4d9;}.cls-4{fill:#8ca4b8;}.cls-5{fill:none;}.cls-6{fill:#627b8c;}.cls-7{fill:#fff;}.cls-8{fill:#e0e0e0;}.cls-13,.cls-9{fill:#00b8f0;}.cls-10{fill:#009fd9;}.cls-11{fill:#4acfff;}.cls-12{fill:#ffe500;}</style></defs><title>604-bullet-train</title><ellipse id="_Ellipse_" data-name="&lt;Ellipse&gt;" class="cls-1" cx="26.38" cy="42.5" rx="17" ry="1.5"/><rect id="_Rectangle_" data-name="&lt;Rectangle&gt;" class="cls-2" x="27.79" y="36.35" width="9.69" height="2.83"/><path id="_Path_" data-name="&lt;Path&gt;" class="cls-3" d="M42,37.6a3.9,3.9,0,1,1-3.9-3.89A3.89,3.89,0,0,1,42,37.6Z"/><path id="_Path_2" data-name="&lt;Path&gt;" class="cls-4" d="M38.1,33.71a3.89,3.89,0,0,0-3.89,3.89,4.08,4.08,0,0,0,.06.71h7.67A4.08,4.08,0,0,0,42,37.6,3.89,3.89,0,0,0,38.1,33.71Z"/><path id="_Path_3" data-name="&lt;Path&gt;" class="cls-3" d="M30.94,37.6A3.9,3.9,0,1,1,27,33.71,3.9,3.9,0,0,1,30.94,37.6Z"/><path id="_Path_4" data-name="&lt;Path&gt;" class="cls-4" d="M27,33.71a3.89,3.89,0,0,0-3.89,3.89,4.08,4.08,0,0,0,.06.71h7.66a3.29,3.29,0,0,0,.07-.71A3.9,3.9,0,0,0,27,33.71Z"/><path id="_Path_5" data-name="&lt;Path&gt;" class="cls-5" d="M42,37.6a3.9,3.9,0,1,1-3.9-3.89A3.89,3.89,0,0,1,42,37.6Z"/><path id="_Path_6" data-name="&lt;Path&gt;" class="cls-5" d="M30.94,37.6A3.9,3.9,0,1,1,27,33.71,3.9,3.9,0,0,1,30.94,37.6Z"/><path id="_Path_7" data-name="&lt;Path&gt;" class="cls-6" d="M28.86,37.6A1.82,1.82,0,1,1,27,35.78,1.82,1.82,0,0,1,28.86,37.6Z"/><path id="_Path_8" data-name="&lt;Path&gt;" class="cls-6" d="M39.93,37.6a1.83,1.83,0,1,1-1.83-1.82A1.83,1.83,0,0,1,39.93,37.6Z"/><path id="_Path_9" data-name="&lt;Path&gt;" class="cls-7" d="M47.5,7a2,2,0,0,0-2-2c-13.4.06-19.32.86-22.81,3.24-3.67,2.5-7.57,7.54-12.94,10s-7.9,5.48-7.9,9.81,5.5,8.23,14.5,8.23H45.5a2,2,0,0,0,2-2Z"/><path id="_Path_10" data-name="&lt;Path&gt;" class="cls-8" d="M2.09,25.91a9.29,9.29,0,0,0-.26,2.21c0,4.33,5.5,8.23,14.5,8.23H45.5a2,2,0,0,0,2-2V32.54H16.33C8.46,32.54,3.26,29.56,2.09,25.91Z"/><path id="_Path_11" data-name="&lt;Path&gt;" class="cls-5" d="M47.5,7a2,2,0,0,0-2-2c-13.4.06-19.32.86-22.81,3.24-3.67,2.5-7.57,7.54-12.94,10s-7.9,5.48-7.9,9.81,5.5,8.23,14.5,8.23H45.5a2,2,0,0,0,2-2Z"/><path id="_Path_12" data-name="&lt;Path&gt;" class="cls-9" d="M1.83,28.12c0,3.48,3.55,6.68,9.62,7.81a14.27,14.27,0,0,0,2.28-7.81A13.94,13.94,0,0,0,9.8,18.28l-.07,0C4.46,20.77,1.83,23.79,1.83,28.12Z"/><path class="cls-10" d="M2.09,25.91h0a9.29,9.29,0,0,0-.26,2.21c0,3.48,3.55,6.68,9.62,7.81a14,14,0,0,0,1.66-3.57C7.05,31.67,3.1,29,2.09,25.91Z"/><path id="_Path_13" data-name="&lt;Path&gt;" class="cls-5" d="M1.83,28.12c0,3.48,3.55,6.68,9.62,7.81a14.27,14.27,0,0,0,2.28-7.81A13.94,13.94,0,0,0,9.8,18.28l-.07,0C4.46,20.77,1.83,23.79,1.83,28.12Z"/><path id="_Path_14" data-name="&lt;Path&gt;" class="cls-9" d="M14.41,41.5h9.1a1,1,0,0,0,.95-.68L26,36.35H14.85l-1.38,3.81A1,1,0,0,0,14.41,41.5Z"/><polygon id="_Path_15" data-name="&lt;Path&gt;" class="cls-10" points="25.26 38.48 25.98 36.35 14.85 36.35 14.08 38.48 25.26 38.48"/><path id="_Path_16" data-name="&lt;Path&gt;" class="cls-5" d="M14.41,41.5h9.1a1,1,0,0,0,.95-.68L26,36.35H14.85l-1.38,3.81A1,1,0,0,0,14.41,41.5Z"/><path id="_Path_17" data-name="&lt;Path&gt;" class="cls-9" d="M20.3,10.15c-1.93,1.69-4,3.75-6.32,5.54a148,148,0,0,1,22-.94,1,1,0,0,0,.89-.5l1.92-3.31a1,1,0,0,0-.87-1.5H29.67A77.94,77.94,0,0,0,20.3,10.15Z"/><path id="_Path_18" data-name="&lt;Path&gt;" class="cls-11" d="M22.25,14.93c2.77-.16,5.39-.22,7.62-.24l3.95-5.25H29.67c-1,0-2.07,0-3.13.1Z"/><path id="_Path_19" data-name="&lt;Path&gt;" class="cls-5" d="M20.3,10.15c-1.93,1.69-4,3.75-6.32,5.54a148,148,0,0,1,22-.94,1,1,0,0,0,.89-.5l1.92-3.31a1,1,0,0,0-.87-1.5H29.67A77.94,77.94,0,0,0,20.3,10.15Z"/><path id="_Path_20" data-name="&lt;Path&gt;" class="cls-12" d="M18.92,27.1a1.42,1.42,0,1,1-1.42-1.41A1.42,1.42,0,0,1,18.92,27.1Z"/><path id="_Path_21" data-name="&lt;Path&gt;" class="cls-13" d="M29.6,31.27H47.5V21.69H33a.5.5,0,0,0-.47.31l-3.38,8.59A.5.5,0,0,0,29.6,31.27Z"/><path id="_Path_22" data-name="&lt;Path&gt;" class="cls-13" d="M24.21,30.59,27.59,22a.49.49,0,0,1,.46-.31h1.36a.49.49,0,0,1,.46.68L26.49,31a.48.48,0,0,1-.46.32H24.67A.49.49,0,0,1,24.21,30.59Z"/></svg>