<svg height="512" viewBox="0 0 42 60" width="512" xmlns="http://www.w3.org/2000/svg"><g id="Page-1" fill="none" fill-rule="evenodd"><g id="028---Train" fill-rule="nonzero"><path id="Shape" d="m11 9h20c1.1045695 0 2 .8954305 2 2v3h-24v-3c0-1.1045695.8954305-2 2-2z" fill="#7f8e94"/><path id="Shape" d="m31 9h-3c1.1045695 0 2 .8954305 2 2v3h3v-3c0-1.1045695-.8954305-2-2-2z" fill="#545c60"/><path id="Shape" d="m32 51v1h-22v-1c0-2.209139 1.790861-4 4-4h14c2.209139 0 4 1.790861 4 4z" fill="#7f8e94"/><path id="Shape" d="m28 47h-3c2.209139 0 4 1.790861 4 4v1h3v-1c0-2.209139-1.790861-4-4-4z" fill="#545c60"/><path id="Shape" d="m4 54h5v3c0 1.1045695-.8954305 2-2 2h-1c-1.1045695 0-2-.8954305-2-2z" fill="#607d8b"/><path id="Shape" d="m33 54h5v3c0 1.1045695-.8954305 2-2 2h-1c-1.1045695 0-2-.8954305-2-2z" fill="#607d8b"/><path id="Shape" d="m40.1 51.94c.0162299.5407508-.187297 1.0650103-.5641432 1.4531619-.3768463.3881517-.8948626.6070816-1.4358568.6068381h-5.1c-.5522847 0-1-.4477153-1-1v-2c0-2.209139-1.790861-4-4-4h-14c-2.209139 0-4 1.790861-4 4v2c0 .5522847-.44771525 1-1 1h-5.1c-.5409942.0002435-1.05901054-.2186864-1.43585679-.6068381-.37684625-.3881516-.58037309-.9124111-.56414321-1.4531619l1-34.06c.06489315-2.1621387 1.83688789-3.8809736 4-3.88h28.21c2.1631121-.0009736 3.9351068 1.7178613 4 3.88z" fill="#f44335"/><path id="Shape" d="m39.11 17.88c-.0648932-2.1621387-1.8368879-3.8809736-4-3.88l-3-.0000004c2.1631121-.0009732 3.9351068 1.7178617 4 3.8800004l1 34.06c.0162299.5407508-.187297 1.0650103-.5641432 1.4531619-.3768463.3881517-.8948626.6070816-1.4358568.6068381h3c.5409942.0002435 1.0590105-.2186864 1.4358568-.6068381.3768462-.3881516.5803731-.9124111.5641432-1.4531619z" fill="#c81e1e"/><path id="Rectangle-path" d="m19 1h4v8h-4z" fill="#607d8b"/><path id="Shape" d="m28.31 38h-14.62c-2.0899748.0066978-3.83281189-1.5967123-4-3.68l-1.6-20.32h25.82l-1.62 20.32c-.1665802 2.0756201-1.8977095 3.6762623-3.98 3.68z" fill="#02a9f4"/><path id="Shape" d="m30.91 14-1.62 20.32c-.1671881 2.0832877-1.9100252 3.6866978-4 3.6800209l3-.0000209c2.0899748.0066978 3.8328119-1.5967123 4-3.68l1.62-20.32z" fill="#0377bc"/><path id="Shape" d="m14 38h14v2c0 1.1045695-.8954305 2-2 2h-10c-1.1045695 0-2-.8954305-2-2z" fill="#f5f5f5"/><path id="Shape" d="m2.25 40h4.25c1.38071187 0 2.5 1.1192881 2.5 2.5s-1.11928813 2.5-2.5 2.5h-4.4z" fill="#ffdc00"/><path id="Shape" d="m39.75 40h-4.25c-1.3807119 0-2.5 1.1192881-2.5 2.5s1.1192881 2.5 2.5 2.5h4.4z" fill="#ffdc00"/><path id="Shape" d="m35 60h1c1.6568542 0 3-1.3431458 3-3v-2.15c1.2778001-.4013537 2.1347627-1.6011014 2.1-2.94l-1-34c-.0758143-2.7066002-2.2923384-4.8610616-5-4.86h-1.1v-2.05c0-1.65685425-1.3431458-3-3-3h-7v-6h9.59l2.7 2.71c.1877666.18931265.4433625.29579832.71.29579832s.5222334-.10648567.71-.29579832c.1893127-.1877666.2957983-.44336246.2957983-.71s-.1064856-.5222334-.2957983-.71l-3-3c-.1887188-.18718651-.444197-.29153676-.71-.29h-26c-.26580298-.00153676-.52128117.10281349-.71.29l-3 3c-.39212217.39212217-.39212217 1.02787783 0 1.42s1.02787783.39212217 1.42 0l2.7-2.71h9.59v6h-7c-1.65685425 0-3 1.34314575-3 3v2h-1.11c-2.70766158-.0010616-4.92418568 2.1533998-5 4.86l-1 34.05c-.03344732 1.3416379.82823368 2.542274 2.11 2.94v2.15c0 1.6568542 1.34314575 3 3 3h1c1.65685425 0 3-1.3431458 3-3v-2.28c.6150891-.3551046.9957131-1.0097779 1-1.72h20c.0042869.7102221.3849109 1.3648954 1 1.72v2.28c0 1.6568542 1.3431458 3 3 3zm2-3c0 .5522847-.4477153 1-1 1h-1c-.5522847 0-1-.4477153-1-1v-2h3zm1.87-13h-3.37c-.6062833-.0005333-1.1526315-.3659901-1.384574-.926153-.2319424-.5601628-.1038666-1.2048734.324574-1.633847.2797678-.2832726.6618671-.4418798 1.06-.44h3.28zm-23.87-5h12v1c0 .5522847-.4477153 1-1 1h-10c-.5522847 0-1-.4477153-1-1zm13.31-2h-14.62c-1.5674811.0050234-2.8746089-1.1975342-3-2.76l-1.52-19.24h23.66l-1.53 19.24c-.1250912 1.5586281-1.4263603 2.7597995-2.99 2.76zm-8.31-35h2v6h-2zm-10 9c0-.5522847.4477153-1 1-1h20c.5522847 0 1 .4477153 1 1v2h-22zm-6.78 30h3.28c.60628331.0005333 1.15263151.3659901 1.38457395.926153.23194244.5601628.10386666 1.2048734-.32457395 1.633847-.27976775.2832726-.66186709.4418798-1.06.44l-3.37.0000165zm-.14 5h3.42c.93292938.011159 1.83212634-.3485197 2.5-1 1.0093808-1.0028351 1.3134843-2.5158275.76996778-3.8307867-.54351648-1.3149592-1.8271109-2.1717031-3.24996778-2.1692133h-3.24l.61-21.09c.04866986-1.621604 1.37766592-2.9107302 3-2.91h.27l1.55 19.4c.19698464 2.3264017 1.9777531 4.2067936 4.29 4.53v1.07c0 1.6568542 1.3431458 3 3 3h10c1.6568542 0 3-1.3431458 3-3v-1.07c2.3122469-.3232064 4.0930154-2.2035983 4.29-4.53l1.55-19.4h.27c1.6223341-.0007302 2.9513301 1.288396 3 2.91l.61 21.09h-3.22c-.9329294-.011159-1.8321263.3485197-2.5 1-1.0093808 1.0028351-1.3134843 2.5158275-.7699678 3.8307867s1.8271109 2.1717031 3.2499678 2.1692133h3.42l.18 6c.0014193.2716884-.1025286.5333504-.29.73-.1870714.1908556-.4427541.2988906-.71.3h-5.08v-2.03c0-2.7614237-2.2385763-5-5-5h-14c-2.7614237 0-5 2.2385763-5 5v2h-5.1c-.2672459-.0011094-.52292856-.1091444-.71-.3-.18041996-.1891073-.28382497-.4387056-.29-.7zm4.92 11c0 .5522847-.44771525 1-1 1h-1c-.55228475 0-1-.4477153-1-1v-2h3zm3-6c0-1.6568542 1.3431458-3 3-3h14c1.6568542 0 3 1.3431458 3 3z" fill="#000"/><g fill="#f5f5f5"><path id="Shape" d="m15.76 25.65 6-7c.3589851-.4197364.3097364-1.0510149-.11-1.41s-1.0510149-.3097364-1.41.11l-6 7c-.3589851.4197364-.3097364 1.0510149.11 1.41s1.0510149.3097364 1.41-.11z"/><path id="Shape" d="m26.24 18.35-11.14 13c-.3589851.4197364-.3097364 1.0510149.11 1.41s1.0510149.3097364 1.41-.11l11.14-13c.2322226-.2715218.30195-.6463077.1829165-.9831793s-.4087439-.5846502-.76-.65-.7106939.0616575-.9429165.3331793z"/></g></g></g></svg>